# https://github.com/mikedh/trimesh
v 493.70000000 503.90000000 3.52733082
v 493.90000000 503.90000000 3.52732568
v 494.10000000 503.90000000 3.52732053
v 494.30000000 503.90000000 3.52731539
v 494.50000000 503.90000000 3.52731025
v 494.70000000 503.90000000 3.52730511
v 494.90000000 503.90000000 3.52729997
v 495.10000000 503.90000000 3.52729483
v 499.10000000 503.90000000 3.52719202
v 499.30000000 503.90000000 3.52718688
v 499.50000000 503.90000000 3.52718173
v 499.70000000 503.90000000 3.52717659
v 499.90000000 503.90000000 3.52717145
v 500.10000000 503.90000000 3.52716631
v 500.30000000 503.90000000 3.52716117
v 500.50000000 503.90000000 3.52715603
v 500.70000000 503.90000000 3.52715089
v 500.90000000 503.90000000 3.52714575
v 501.10000000 503.90000000 3.52714061
v 501.30000000 503.90000000 3.52713547
v 501.50000000 503.90000000 3.52713033
v 501.70000000 503.90000000 3.52712519
v 501.90000000 503.90000000 3.52712005
v 502.10000000 503.90000000 3.52711490
v 502.30000000 503.90000000 3.52710976
v 502.50000000 503.90000000 3.52710462
v 502.70000000 503.90000000 3.52709948
v 502.90000000 503.90000000 3.52709434
v 503.10000000 503.90000000 3.52708920
v 503.30000000 503.90000000 3.52708406
v 503.50000000 503.90000000 3.52707892
v 503.70000000 503.90000000 3.52707378
v 503.90000000 503.90000000 3.52706864
v 504.10000000 503.90000000 3.52706350
v 504.30000000 503.90000000 3.52705836
v 493.70000000 503.70000000 3.67594403
v 493.90000000 503.70000000 3.67593889
v 494.10000000 503.70000000 3.67593375
v 494.30000000 503.70000000 3.67592861
v 494.50000000 503.70000000 3.67592347
v 494.70000000 503.70000000 3.67591832
v 494.90000000 503.70000000 3.67591318
v 495.10000000 503.70000000 3.67590804
v 495.30000000 503.70000000 3.67590290
v 498.10000000 503.70000000 3.67583093
v 498.30000000 503.70000000 3.67582579
v 498.50000000 503.70000000 3.67582065
v 498.70000000 503.70000000 3.67581551
v 498.90000000 503.70000000 3.67581037
v 499.10000000 503.70000000 3.67580523
v 499.30000000 503.70000000 3.67580009
v 499.50000000 503.70000000 3.67579495
v 499.70000000 503.70000000 3.67578981
v 499.90000000 503.70000000 3.67578466
v 500.10000000 503.70000000 3.67577952
v 500.30000000 503.70000000 3.67577438
v 500.50000000 503.70000000 3.67576924
v 500.70000000 503.70000000 3.67576410
v 500.90000000 503.70000000 3.67575896
v 501.10000000 503.70000000 3.67575382
v 501.30000000 503.70000000 3.67574868
v 501.50000000 503.70000000 3.67574354
v 501.70000000 503.70000000 3.67573840
v 501.90000000 503.70000000 3.67573326
v 502.10000000 503.70000000 3.67572812
v 502.30000000 503.70000000 3.67572298
v 502.50000000 503.70000000 3.67571784
v 502.70000000 503.70000000 3.67571269
v 502.90000000 503.70000000 3.67570755
v 503.10000000 503.70000000 3.67570241
v 503.30000000 503.70000000 3.67569727
v 503.50000000 503.70000000 3.67569213
v 503.70000000 503.70000000 3.67568699
v 503.90000000 503.70000000 3.67568185
v 493.70000000 503.50000000 3.82455724
v 493.90000000 503.50000000 3.82455210
v 494.10000000 503.50000000 3.82454696
v 494.30000000 503.50000000 3.82454182
v 494.50000000 503.50000000 3.82453668
v 494.70000000 503.50000000 3.82453154
v 494.90000000 503.50000000 3.82452640
v 495.10000000 503.50000000 3.82452125
v 495.30000000 503.50000000 3.82451611
v 498.50000000 503.50000000 3.82443386
v 498.70000000 503.50000000 3.82442872
v 498.90000000 503.50000000 3.82442358
v 499.10000000 503.50000000 3.82441844
v 499.30000000 503.50000000 3.82441330
v 499.50000000 503.50000000 3.82440816
v 499.70000000 503.50000000 3.82440302
v 499.90000000 503.50000000 3.82439788
v 500.10000000 503.50000000 3.82439274
v 500.30000000 503.50000000 3.82438760
v 500.50000000 503.50000000 3.82438245
v 500.70000000 503.50000000 3.82437731
v 500.90000000 503.50000000 3.82437217
v 501.10000000 503.50000000 3.82436703
v 501.30000000 503.50000000 3.82436189
v 501.50000000 503.50000000 3.82435675
v 501.70000000 503.50000000 3.82435161
v 501.90000000 503.50000000 3.82434647
v 493.70000000 503.30000000 3.97317045
v 493.90000000 503.30000000 3.97316531
v 494.10000000 503.30000000 3.97316017
v 494.30000000 503.30000000 3.97315503
v 494.50000000 503.30000000 3.97314989
v 494.70000000 503.30000000 3.97314475
v 494.90000000 503.30000000 3.97313961
v 493.70000000 503.10000000 4.12178366
v 493.90000000 503.10000000 4.12177852
v 494.10000000 503.10000000 4.12177338
v 494.30000000 503.10000000 4.12176824
v 494.50000000 503.10000000 4.12176310
v 494.70000000 503.10000000 4.12175796
v 493.70000000 502.90000000 4.27039688
v 493.90000000 502.90000000 4.27039174
v 494.10000000 502.90000000 4.27038659
v 494.30000000 502.90000000 4.27038145
v 494.50000000 502.90000000 4.27037631
v 494.70000000 502.90000000 4.27037117
v 493.70000000 502.70000000 4.41901009
v 493.90000000 502.70000000 4.41900495
v 494.10000000 502.70000000 4.41899981
v 494.30000000 502.70000000 4.41899467
v 494.50000000 502.70000000 4.41898952
v 493.70000000 502.50000000 4.56762330
v 493.90000000 502.50000000 4.56761816
v 494.10000000 502.50000000 4.56761302
v 494.30000000 502.50000000 4.56760788
v 494.50000000 502.50000000 4.56760274
v 493.70000000 502.30000000 4.71623651
v 493.90000000 502.30000000 4.71623137
v 494.10000000 502.30000000 4.71622623
v 494.30000000 502.30000000 4.71622109
v 493.70000000 502.10000000 4.86484972
v 493.90000000 502.10000000 4.86484458
v 494.10000000 502.10000000 4.86483944
v 493.70000000 501.90000000 5.01346294
v 493.90000000 501.90000000 5.01345779
v 494.10000000 501.90000000 5.01345265
v 493.70000000 501.70000000 5.16207615
v 493.90000000 501.70000000 5.16207101
v 494.10000000 501.70000000 5.16206587
v 493.70000000 501.50000000 5.31068936
v 493.90000000 501.50000000 5.31068422
v 494.10000000 501.50000000 5.31067908
v 493.70000000 501.30000000 5.45930257
v 493.90000000 501.30000000 5.45929743
v 494.10000000 501.30000000 5.45929229
v 493.70000000 501.10000000 5.60791578
v 493.90000000 501.10000000 5.60791064
v 493.70000000 500.90000000 5.75652900
v 493.90000000 500.90000000 5.75652385
v 494.40000000 496.60000000 8.95169506
v 494.00000000 496.60000000 8.95170534
v 494.00000000 496.60000000 3.48744845
v 494.40000000 496.60000000 3.48744845
v 494.00000000 497.00000000 8.65447892
v 494.00000000 497.00000000 3.48744845
v 494.40000000 497.00000000 8.65446864
v 494.40000000 497.00000000 3.48744845
v 494.00000000 500.00000000 6.42528074
v 493.80000000 500.00000000 6.42528588
v 493.80000000 500.00000000 3.48744845
v 494.00000000 500.00000000 3.48744845
v 493.80000000 500.40000000 6.12805945
v 493.80000000 500.40000000 3.48744845
v 494.00000000 500.40000000 6.12805431
v 494.00000000 500.40000000 3.48744845
v 495.20000000 503.80000000 3.60159887
v 495.40000000 503.80000000 3.60159373
v 495.40000000 503.80000000 3.48744845
v 495.20000000 503.80000000 3.48744845
v 495.40000000 503.40000000 3.89882015
v 495.40000000 503.40000000 3.48744845
v 495.00000000 503.40000000 3.89883043
v 495.00000000 503.40000000 3.48744845
v 495.00000000 503.20000000 4.04744364
v 495.00000000 503.20000000 3.48744845
v 494.80000000 503.20000000 4.04744878
v 494.80000000 503.20000000 3.48744845
v 494.80000000 502.80000000 4.34467521
v 494.80000000 502.80000000 3.48744845
v 494.60000000 502.80000000 4.34468035
v 494.60000000 502.80000000 3.48744845
v 494.60000000 502.40000000 4.64190677
v 494.60000000 502.40000000 3.48744845
v 494.40000000 502.40000000 4.64191191
v 494.40000000 502.40000000 3.48744845
v 494.40000000 502.20000000 4.79052513
v 494.40000000 502.20000000 3.48744845
v 494.20000000 502.20000000 4.79053027
v 494.20000000 502.20000000 3.48744845
v 494.20000000 501.20000000 5.53359633
v 494.20000000 501.20000000 3.48744845
v 494.00000000 501.20000000 5.53360147
v 494.00000000 501.20000000 3.48744845
v 494.00000000 500.80000000 5.83082789
v 494.00000000 500.80000000 3.48744845
v 493.60000000 500.80000000 5.83083817
v 493.60000000 500.80000000 3.48744845
v 493.60000000 504.00000000 3.45302678
v 493.60000000 504.00000000 3.48744845
v 495.20000000 504.00000000 3.45298565
v 495.20000000 504.00000000 3.48744845
v 504.40000000 503.80000000 3.60136239
v 504.00000000 503.80000000 3.60137267
v 504.00000000 503.80000000 3.48744845
v 504.40000000 503.80000000 3.48744845
v 504.00000000 503.60000000 3.74998589
v 504.00000000 503.60000000 3.48744845
v 502.00000000 503.60000000 3.75003729
v 502.00000000 503.60000000 3.48744845
v 502.00000000 503.40000000 3.89865050
v 502.00000000 503.40000000 3.48744845
v 498.40000000 503.40000000 3.89874304
v 498.40000000 503.40000000 3.48744845
v 498.40000000 503.60000000 3.75012983
v 498.40000000 503.60000000 3.48744845
v 498.00000000 503.60000000 3.75014011
v 498.00000000 503.60000000 3.48744845
v 498.00000000 503.80000000 3.60152690
v 498.00000000 503.80000000 3.48744845
v 499.00000000 503.80000000 3.60150119
v 499.00000000 503.80000000 3.48744845
v 499.00000000 504.00000000 3.45288798
v 499.00000000 504.00000000 3.48744845
v 504.40000000 504.00000000 3.45274918
v 504.40000000 504.00000000 3.48744845
f 151 153 149
f 48 49 9
f 43 44 8
f 46 45 84
f 140 134 137
f 47 46 84
f 49 50 9
f 34 74 35
f 34 33 74
f 134 133 137
f 82 108 83
f 119 125 120
f 120 125 130
f 82 81 108
f 148 151 149
f 130 129 134
f 65 64 101
f 66 65 101
f 107 114 108
f 108 114 120
f 85 49 48
f 49 85 86
f 47 85 48
f 85 47 84
f 50 49 86
f 87 50 86
f 73 33 32
f 33 73 74
f 82 44 43
f 44 82 83
f 51 50 87
f 51 87 88
f 51 10 9
f 50 51 9
f 55 54 92
f 54 91 92
f 14 54 55
f 54 14 13
f 64 100 101
f 64 63 100
f 63 62 100
f 62 99 100
f 21 62 22
f 62 63 22
f 31 73 32
f 73 31 72
f 67 27 26
f 68 27 67
f 7 43 8
f 7 42 43
f 7 6 41
f 42 7 41
f 105 111 112
f 111 105 104
f 40 6 5
f 6 40 41
f 40 79 80
f 41 40 80
f 81 41 80
f 81 42 41
f 81 82 43
f 42 81 43
f 150 153 151
f 150 152 153
f 145 148 146
f 146 148 149
f 147 148 144
f 148 145 144
f 148 150 151
f 150 148 147
f 136 139 137
f 139 140 137
f 54 53 91
f 91 53 90
f 57 56 94
f 56 93 94
f 56 55 92
f 93 56 92
f 64 23 63
f 63 23 22
f 66 67 26
f 25 66 26
f 62 61 99
f 99 61 98
f 70 30 29
f 71 30 70
f 31 30 72
f 30 71 72
f 40 39 79
f 79 39 78
f 4 39 5
f 39 40 5
f 129 128 133
f 129 133 134
f 135 139 136
f 139 135 138
f 132 136 137
f 133 132 137
f 128 132 133
f 132 128 127
f 132 135 136
f 135 132 131
f 131 132 126
f 132 127 126
f 142 141 144
f 145 142 144
f 142 145 146
f 142 146 143
f 141 142 138
f 142 139 138
f 139 142 140
f 140 142 143
f 15 56 57
f 15 57 16
f 15 14 55
f 56 15 55
f 65 23 64
f 23 65 24
f 65 25 24
f 65 66 25
f 58 57 94
f 95 58 94
f 58 95 96
f 59 58 96
f 20 62 21
f 20 61 62
f 60 59 96
f 97 60 96
f 20 60 61
f 60 20 19
f 61 60 98
f 60 97 98
f 28 70 29
f 28 69 70
f 28 27 68
f 69 28 68
f 122 121 126
f 127 122 126
f 121 122 115
f 115 122 116
f 110 104 103
f 110 111 104
f 110 115 116
f 110 109 115
f 109 110 102
f 102 110 103
f 107 81 80
f 81 107 108
f 76 102 103
f 76 75 102
f 12 54 13
f 12 53 54
f 53 52 90
f 52 89 90
f 52 51 88
f 89 52 88
f 12 52 53
f 52 12 11
f 51 52 10
f 52 11 10
f 57 17 16
f 58 17 57
f 117 110 116
f 110 117 111
f 114 113 119
f 114 119 120
f 106 105 112
f 113 106 112
f 106 79 78
f 105 106 78
f 114 106 113
f 106 114 107
f 79 106 80
f 106 107 80
f 37 2 1
f 36 37 1
f 75 37 36
f 76 37 75
f 18 60 19
f 60 18 59
f 18 58 59
f 18 17 58
f 113 118 119
f 118 113 112
f 111 118 112
f 117 118 111
f 105 77 104
f 77 105 78
f 104 77 103
f 77 76 103
f 124 129 130
f 125 124 130
f 118 124 119
f 124 125 119
f 38 3 2
f 37 38 2
f 3 38 4
f 38 39 4
f 38 37 76
f 77 38 76
f 39 38 78
f 38 77 78
f 122 123 116
f 123 117 116
f 128 123 127
f 123 122 127
f 123 118 117
f 123 124 118
f 129 123 128
f 124 123 129
f 154 155 156
f 154 156 157
f 155 158 159
f 155 159 156
f 158 160 161
f 158 161 159
f 160 154 157
f 160 157 161
f 162 163 164
f 162 164 165
f 163 166 167
f 163 167 164
f 166 168 169
f 166 169 167
f 168 162 165
f 168 165 169
f 170 171 172
f 170 172 173
f 171 174 175
f 171 175 172
f 174 176 177
f 174 177 175
f 176 178 179
f 176 179 177
f 178 180 181
f 178 181 179
f 180 182 183
f 180 183 181
f 182 184 185
f 182 185 183
f 184 186 187
f 184 187 185
f 186 188 189
f 186 189 187
f 188 190 191
f 188 191 189
f 190 192 193
f 190 193 191
f 192 194 195
f 192 195 193
f 194 196 197
f 194 197 195
f 196 198 199
f 196 199 197
f 198 200 201
f 198 201 199
f 200 202 203
f 200 203 201
f 202 204 205
f 202 205 203
f 204 170 173
f 204 173 205
f 206 207 208
f 206 208 209
f 207 210 211
f 207 211 208
f 210 212 213
f 210 213 211
f 212 214 215
f 212 215 213
f 214 216 217
f 214 217 215
f 216 218 219
f 216 219 217
f 218 220 221
f 218 221 219
f 220 222 223
f 220 223 221
f 222 224 225
f 222 225 223
f 224 226 227
f 224 227 225
f 226 228 229
f 226 229 227
f 228 206 209
f 228 209 229

